<svg width="483" height="323" viewBox="0 0 483 323" fill="none" xmlns="http://www.w3.org/2000/svg">
<g clip-path="url(#clip0_332_1794)">
<path d="M29.5703 60.9922L61.487 60.9921L103.12 19.3595L142.046 19.3595L161.104 0.313775L191.228 0.313778L209.996 19.0813L325.27 19.0813" stroke="#C6D4E1" stroke-width="0.632329" stroke-miterlimit="10"/>
<path d="M17.1355 67.2148L63.8267 67.2148L106.623 25.5823L325.27 25.5823" stroke="#C6D4E1" stroke-width="0.632329" stroke-miterlimit="10"/>
<path d="M-55.9992 156.895L7.80279 156.895L42.1383 122.559L70.0493 122.559L96.898 95.7103L96.898 71.1127L131.322 36.6761L219.443 36.6761" stroke="#C6D4E1" stroke-width="0.632329" stroke-miterlimit="10"/>
<path d="M73.9436 127.906L105.408 96.4415L105.408 74.2215L134.318 45.3114" stroke="#C6D4E1" stroke-width="0.632329" stroke-miterlimit="10"/>
<path d="M325.27 131.46L250.908 131.46L216.332 96.8842L114.4 96.8842L66.5457 144.739L66.5457 170.702L34.0566 203.191L-45.1111 203.191" stroke="#C6D4E1" stroke-width="0.632329" stroke-miterlimit="10"/>
<path d="M338.496 123.242L253.675 123.242L178.15 47.7041L146.306 47.7041L114.753 79.2447" stroke="#C6D4E1" stroke-width="0.632329" stroke-miterlimit="10"/>
<path d="M-42.81 194.047L28.8076 194.047L56.4277 166.427L56.4278 133.356" stroke="#C6D4E1" stroke-width="0.632329" stroke-miterlimit="10"/>
<path d="M28.0352 150.04L10.6967 167.379L-56.0014 167.379" stroke="#C6D4E1" stroke-width="0.632329" stroke-miterlimit="10"/>
<path d="M30.3613 160.197L13.0228 177.535L-53.6752 177.535" stroke="#C6D4E1" stroke-width="0.632329" stroke-miterlimit="10"/>
<path d="M75.1069 177.531L39.2285 213.41L39.2285 281.967L80.5 322.5" stroke="#C6D4E1" stroke-width="0.632329" stroke-miterlimit="10"/>
<path d="M75.2966 189.598L45.5392 219.355L45.5392 276.227L80.5 310.5" stroke="#C6D4E1" stroke-width="0.632329" stroke-miterlimit="10"/>
<path d="M75.4863 201.496L51.7613 225.221L51.7613 270.546L80.5 300" stroke="#C6D4E1" stroke-width="0.632329" stroke-miterlimit="10"/>
<path d="M75.676 212.892L57.7305 230.837L57.7305 265.109L80.5 289" stroke="#C6D4E1" stroke-width="0.632329" stroke-miterlimit="10"/>
<path d="M480.453 148.785L444.575 112.906L376.018 112.906L339.014 149.91" stroke="#C6D4E1" stroke-width="0.632329" stroke-miterlimit="10"/>
<path d="M468.391 148.974L438.633 119.217L381.762 119.217L351.068 149.91" stroke="#C6D4E1" stroke-width="0.632329" stroke-miterlimit="10"/>
<path d="M456.49 149.164L432.765 125.439L387.44 125.439L362.969 149.91" stroke="#C6D4E1" stroke-width="0.632329" stroke-miterlimit="10"/>
<path d="M445.096 149.341L427.15 131.408L392.878 131.408L374.376 149.91" stroke="#C6D4E1" stroke-width="0.632329" stroke-miterlimit="10"/>
<path d="M134.508 117.258L88.0696 163.697L88.0696 186.094" stroke="#C6D4E1" stroke-width="0.632329" stroke-miterlimit="10"/>
<path d="M205.441 86.6055L134.317 86.6055" stroke="#C6D4E1" stroke-width="0.632329" stroke-miterlimit="10"/>
<path d="M197.664 77.332L134.507 77.332" stroke="#C6D4E1" stroke-width="0.632329" stroke-miterlimit="10"/>
<path d="M161.419 131.016L237.918 131.016" stroke="#C6D4E1" stroke-width="0.632329" stroke-miterlimit="10"/>
<path d="M231.114 86.6026L257.988 113.477L338.496 113.477L372.515 79.4572L424.088 79.4572" stroke="#C6D4E1" stroke-width="0.632329" stroke-miterlimit="10"/>
<path d="M219.442 57.8828L263.793 102.234L333.83 102.234L364.953 71.1111" stroke="#C6D4E1" stroke-width="0.632329" stroke-miterlimit="10"/>
<path d="M237.92 36.8617L325.27 36.8617L345.884 57.4883L385.961 57.4883L403.666 39.7831" stroke="#C6D4E1" stroke-width="0.632329" stroke-miterlimit="10"/>
<path d="M210.88 47.704L320.792 47.704L344.846 71.7578" stroke="#C6D4E1" stroke-width="0.632329" stroke-miterlimit="10"/>
<path d="M247.454 58.2104L317.554 58.2104L336.676 77.332" stroke="#C6D4E1" stroke-width="0.632329" stroke-miterlimit="10"/>
<path d="M478.47 149.14C478.47 150.228 479.356 151.113 480.443 151.113C481.531 151.113 482.416 150.228 482.416 149.14C482.416 148.053 481.531 147.168 480.443 147.168C479.356 147.168 478.47 148.053 478.47 149.14Z" fill="#9ECCFA"/>
<path d="M478.47 149.14C478.47 150.228 479.356 151.113 480.443 151.113C481.531 151.113 482.416 150.228 482.416 149.14C482.416 148.053 481.531 147.168 480.443 147.168C479.356 147.168 478.47 148.053 478.47 149.14Z" stroke="#C6D4E1" stroke-width="0.632329" stroke-miterlimit="10"/>
<path d="M421.119 79.3045C421.119 80.3921 422.004 81.2773 423.092 81.2773C424.179 81.2773 425.064 80.3921 425.064 79.3045C425.064 78.2169 424.179 77.3316 423.092 77.3316C422.004 77.3316 421.119 78.2169 421.119 79.3045Z" fill="#9ECCFA"/>
<path d="M421.119 79.3045C421.119 80.3921 422.004 81.2773 423.092 81.2773C424.179 81.2773 425.064 80.3921 425.064 79.3045C425.064 78.2169 424.179 77.3316 423.092 77.3316C422.004 77.3316 421.119 78.2169 421.119 79.3045Z" stroke="#C6D4E1" stroke-width="0.632329" stroke-miterlimit="10"/>
<path d="M334.703 77.3318C334.703 78.4194 335.588 79.3047 336.676 79.3047C337.763 79.3047 338.648 78.4194 338.648 77.3318C338.648 76.2442 337.763 75.359 336.676 75.359C335.588 75.359 334.703 76.2442 334.703 77.3318Z" fill="#9ECCFA"/>
<path d="M334.703 77.3318C334.703 78.4194 335.588 79.3047 336.676 79.3047C337.763 79.3047 338.648 78.4194 338.648 77.3318C338.648 76.2442 337.763 75.359 336.676 75.359C335.588 75.359 334.703 76.2442 334.703 77.3318Z" stroke="#C6D4E1" stroke-width="0.632329" stroke-miterlimit="10"/>
<path d="M217.466 57.492C217.466 58.5796 218.352 59.4648 219.439 59.4648C220.527 59.4648 221.412 58.5796 221.412 57.492C221.412 56.4044 220.527 55.5191 219.439 55.5191C218.352 55.5191 217.466 56.4044 217.466 57.492Z" fill="#9ECCFA"/>
<path d="M217.466 57.492C217.466 58.5796 218.352 59.4648 219.439 59.4648C220.527 59.4648 221.412 58.5796 221.412 57.492C221.412 56.4044 220.527 55.5191 219.439 55.5191C218.352 55.5191 217.466 56.4044 217.466 57.492Z" stroke="#C6D4E1" stroke-width="0.632329" stroke-miterlimit="10"/>
<path d="M323.294 18.2967C323.294 19.3843 324.18 20.2695 325.267 20.2695C326.355 20.2695 327.24 19.3843 327.24 18.2967C327.24 17.2091 326.355 16.3238 325.267 16.3238C324.18 16.3238 323.294 17.2091 323.294 18.2967Z" fill="#9ECCFA"/>
<path d="M323.294 18.2967C323.294 19.3843 324.18 20.2695 325.267 20.2695C326.355 20.2695 327.24 19.3843 327.24 18.2967C327.24 17.2091 326.355 16.3238 325.267 16.3238C324.18 16.3238 323.294 17.2091 323.294 18.2967Z" stroke="#C6D4E1" stroke-width="0.632329" stroke-miterlimit="10"/>
<path d="M132.533 77.3318C132.533 78.4194 133.418 79.3047 134.506 79.3047C135.593 79.3047 136.479 78.4194 136.479 77.3318C136.479 76.2442 135.593 75.359 134.506 75.359C133.418 75.359 132.533 76.2442 132.533 77.3318Z" fill="#9ECCFA"/>
<path d="M132.533 77.3318C132.533 78.4194 133.418 79.3047 134.506 79.3047C135.593 79.3047 136.479 78.4194 136.479 77.3318C136.479 76.2442 135.593 75.359 134.506 75.359C133.418 75.359 132.533 76.2442 132.533 77.3318Z" stroke="#C6D4E1" stroke-width="0.632329" stroke-miterlimit="10"/>
<path d="M25.1793 151.672C25.1793 152.759 26.0645 153.645 27.1522 153.645C28.2398 153.645 29.125 152.759 29.125 151.672C29.125 150.584 28.2398 149.699 27.1522 149.699C26.0645 149.699 25.1793 150.584 25.1793 151.672Z" fill="#9ECCFA"/>
<path d="M25.1793 151.672C25.1793 152.759 26.0645 153.645 27.1522 153.645C28.2398 153.645 29.125 152.759 29.125 151.672C29.125 150.584 28.2398 149.699 27.1522 149.699C26.0645 149.699 25.1793 150.584 25.1793 151.672Z" stroke="#C6D4E1" stroke-width="0.632329" stroke-miterlimit="10"/>
<path d="M14.2515 66.3709C14.2515 67.4585 15.1367 68.3437 16.2244 68.3437C17.312 68.3437 18.1973 67.4585 18.1973 66.3709C18.1973 65.2833 17.312 64.398 16.2244 64.398C15.1367 64.398 14.2515 65.2833 14.2515 66.3709Z" fill="#9ECCFA"/>
<path d="M14.2515 66.3709C14.2515 67.4585 15.1367 68.3437 16.2244 68.3437C17.312 68.3437 18.1973 67.4585 18.1973 66.3709C18.1973 65.2833 17.312 64.398 16.2244 64.398C15.1367 64.398 14.2515 65.2833 14.2515 66.3709Z" stroke="#C6D4E1" stroke-width="0.632329" stroke-miterlimit="10"/>
<path d="M401.679 39.8084C401.679 40.896 402.565 41.7812 403.652 41.7812C404.74 41.7812 405.625 40.896 405.625 39.8084C405.625 38.7208 404.74 37.8355 403.652 37.8355C402.565 37.8355 401.679 38.7208 401.679 39.8084Z" fill="#9ECCFA"/>
<path d="M401.679 39.8084C401.679 40.896 402.565 41.7812 403.652 41.7812C404.74 41.7812 405.625 40.896 405.625 39.8084C405.625 38.7208 404.74 37.8355 403.652 37.8355C402.565 37.8355 401.679 38.7208 401.679 39.8084Z" stroke="#C6D4E1" stroke-width="0.632329" stroke-miterlimit="10"/>
<path d="M342.873 71.7576C342.873 72.8452 343.758 73.7305 344.845 73.7305C345.933 73.7305 346.818 72.8452 346.818 71.7576C346.818 70.67 345.933 69.7847 344.845 69.7847C343.758 69.7847 342.873 70.67 342.873 71.7576Z" fill="#9ECCFA"/>
<path d="M342.873 71.7576C342.873 72.8452 343.758 73.7305 344.845 73.7305C345.933 73.7305 346.818 72.8452 346.818 71.7576C346.818 70.67 345.933 69.7847 344.845 69.7847C343.758 69.7847 342.873 70.67 342.873 71.7576Z" stroke="#C6D4E1" stroke-width="0.632329" stroke-miterlimit="10"/>
<path d="M235.945 131.015C235.945 132.103 236.83 132.988 237.918 132.988C239.005 132.988 239.891 132.103 239.891 131.015C239.891 129.928 239.005 129.043 237.918 129.043C236.83 129.043 235.945 129.928 235.945 131.015Z" fill="#9ECCFA"/>
<path d="M235.945 131.015C235.945 132.103 236.83 132.988 237.918 132.988C239.005 132.988 239.891 132.103 239.891 131.015C239.891 129.928 239.005 129.043 237.918 129.043C236.83 129.043 235.945 129.928 235.945 131.015Z" stroke="#C6D4E1" stroke-width="0.632329" stroke-miterlimit="10"/>
<path d="M370.986 150.269C370.986 151.357 371.871 152.242 372.959 152.242C374.046 152.242 374.932 151.357 374.932 150.269C374.932 149.182 374.046 148.296 372.959 148.296C371.871 148.296 370.986 149.182 370.986 150.269Z" fill="#9ECCFA"/>
<path d="M370.986 150.269C370.986 151.357 371.871 152.242 372.959 152.242C374.046 152.242 374.932 151.357 374.932 150.269C374.932 149.182 374.046 148.296 372.959 148.296C371.871 148.296 370.986 149.182 370.986 150.269Z" stroke="#C6D4E1" stroke-width="0.632329" stroke-miterlimit="10"/>
<path d="M360.464 150.269C360.464 151.357 361.35 152.242 362.437 152.242C363.525 152.242 364.41 151.357 364.41 150.269C364.41 149.182 363.525 148.296 362.437 148.296C361.35 148.296 360.464 149.182 360.464 150.269Z" fill="#9ECCFA"/>
<path d="M360.464 150.269C360.464 151.357 361.35 152.242 362.437 152.242C363.525 152.242 364.41 151.357 364.41 150.269C364.41 149.182 363.525 148.296 362.437 148.296C361.35 148.296 360.464 149.182 360.464 150.269Z" stroke="#C6D4E1" stroke-width="0.632329" stroke-miterlimit="10"/>
</g>
<defs>
<clipPath id="clip0_332_1794">
<rect width="539" height="323" fill="white" transform="translate(483 323) rotate(-180)"/>
</clipPath>
</defs>
</svg>
