<svg width="375" height="322" viewBox="0 0 375 322" fill="none" xmlns="http://www.w3.org/2000/svg">
<g opacity="0.15" clip-path="url(#clip0_341_5302)">
<path d="M27.6407 68.19L63.324 68.1899L109.87 21.6442L153.39 21.6442L174.697 0.350783L208.376 0.350786L229.359 21.3331L358.236 21.3331" stroke="white" stroke-width="0.706952" stroke-miterlimit="10"/>
<path d="M13.7384 75.147L65.9398 75.147L113.786 28.6013L358.236 28.6013" stroke="white" stroke-width="0.706952" stroke-miterlimit="10"/>
<path d="M-68.0272 175.41L3.30431 175.41L41.6918 137.023L72.8967 137.023L102.914 107.005L102.914 79.5049L141.4 41.0043L239.921 41.0043" stroke="white" stroke-width="0.706952" stroke-miterlimit="10"/>
<path d="M77.2505 143.001L112.428 107.823L112.428 82.9806L144.75 50.6587" stroke="white" stroke-width="0.706952" stroke-miterlimit="10"/>
<path d="M358.236 146.974L275.099 146.974L236.442 108.318L122.482 108.318L68.9796 161.82L68.9796 190.847L32.6564 227.171L-55.854 227.17" stroke="white" stroke-width="0.706952" stroke-miterlimit="10"/>
<path d="M373.024 137.786L278.193 137.786L193.755 53.3338L158.153 53.3338L122.876 88.5966" stroke="white" stroke-width="0.706952" stroke-miterlimit="10"/>
<path d="M-53.2814 216.947L26.788 216.947L57.6677 186.067L57.6677 149.094" stroke="white" stroke-width="0.706952" stroke-miterlimit="10"/>
<path d="M25.9244 167.747L6.53972 187.132L-68.0296 187.132" stroke="white" stroke-width="0.706952" stroke-miterlimit="10"/>
<path d="M28.5251 179.102L9.14043 198.487L-65.4289 198.487" stroke="white" stroke-width="0.706952" stroke-miterlimit="10"/>
<path d="M78.5512 198.482L38.4387 238.595L38.4387 315.242L84.5807 360.559" stroke="white" stroke-width="0.706952" stroke-miterlimit="10"/>
<path d="M78.7633 211.972L45.4941 245.242L45.4941 308.825L84.5807 347.143" stroke="white" stroke-width="0.706952" stroke-miterlimit="10"/>
<path d="M78.9754 225.275L52.4505 251.8L52.4505 302.474L84.5807 335.404" stroke="white" stroke-width="0.706952" stroke-miterlimit="10"/>
<path d="M79.1874 238.015L59.1241 258.079L59.1241 296.396L84.5807 323.106" stroke="white" stroke-width="0.706952" stroke-miterlimit="10"/>
<path d="M531.733 166.343L491.621 126.231L414.973 126.231L373.602 167.601" stroke="white" stroke-width="0.706952" stroke-miterlimit="10"/>
<path d="M144.962 131.096L93.0436 183.015L93.0436 208.055" stroke="white" stroke-width="0.706952" stroke-miterlimit="10"/>
<path d="M224.267 96.826L144.749 96.826" stroke="white" stroke-width="0.706952" stroke-miterlimit="10"/>
<path d="M215.572 86.4582L144.961 86.4582" stroke="white" stroke-width="0.706952" stroke-miterlimit="10"/>
<path d="M175.049 146.477L260.576 146.477" stroke="white" stroke-width="0.706952" stroke-miterlimit="10"/>
<path d="M252.969 96.8227L283.014 126.868L373.023 126.868L411.057 88.8342L468.716 88.8342" stroke="white" stroke-width="0.706952" stroke-miterlimit="10"/>
<path d="M239.919 64.7137L289.505 114.299L367.807 114.299L402.603 79.5031" stroke="white" stroke-width="0.706952" stroke-miterlimit="10"/>
<path d="M260.578 41.2119L358.236 41.2119L381.283 64.2726L426.09 64.2726L445.884 44.478" stroke="white" stroke-width="0.706952" stroke-miterlimit="10"/>
<path d="M230.348 53.3337L353.23 53.3337L380.123 80.2261" stroke="white" stroke-width="0.706952" stroke-miterlimit="10"/>
<path d="M271.238 65.08L349.61 65.08L370.988 86.4582" stroke="white" stroke-width="0.706952" stroke-miterlimit="10"/>
<path d="M368.783 86.4579C368.783 87.6739 369.772 88.6636 370.988 88.6636C372.204 88.6636 373.194 87.6739 373.194 86.4579C373.194 85.242 372.204 84.2523 370.988 84.2523C369.772 84.2523 368.783 85.242 368.783 86.4579Z" fill="white"/>
<path d="M368.783 86.4579C368.783 87.6739 369.772 88.6636 370.988 88.6636C372.204 88.6636 373.194 87.6739 373.194 86.4579C373.194 85.242 372.204 84.2523 370.988 84.2523C369.772 84.2523 368.783 85.242 368.783 86.4579Z" stroke="white" stroke-width="0.706952" stroke-miterlimit="10"/>
<path d="M237.711 64.2767C237.711 65.4927 238.701 66.4824 239.917 66.4824C241.133 66.4824 242.122 65.4927 242.122 64.2767C242.122 63.0608 241.133 62.071 239.917 62.071C238.701 62.071 237.711 63.0608 237.711 64.2767Z" fill="white"/>
<path d="M237.711 64.2767C237.711 65.4927 238.701 66.4824 239.917 66.4824C241.133 66.4824 242.122 65.4927 242.122 64.2767C242.122 63.0608 241.133 62.071 239.917 62.071C238.701 62.071 237.711 63.0608 237.711 64.2767Z" stroke="white" stroke-width="0.706952" stroke-miterlimit="10"/>
<path d="M356.028 20.4559C356.028 21.6718 357.018 22.6616 358.234 22.6616C359.45 22.6616 360.439 21.6718 360.439 20.4559C360.439 19.2399 359.45 18.2502 358.234 18.2502C357.018 18.2502 356.028 19.2399 356.028 20.4559Z" fill="white"/>
<path d="M356.028 20.4559C356.028 21.6718 357.018 22.6616 358.234 22.6616C359.45 22.6616 360.439 21.6718 360.439 20.4559C360.439 19.2399 359.45 18.2502 358.234 18.2502C357.018 18.2502 356.028 19.2399 356.028 20.4559Z" stroke="white" stroke-width="0.706952" stroke-miterlimit="10"/>
<path d="M142.754 86.4579C142.754 87.6739 143.744 88.6636 144.96 88.6636C146.176 88.6636 147.165 87.6739 147.165 86.4579C147.165 85.242 146.176 84.2523 144.96 84.2523C143.744 84.2523 142.754 85.242 142.754 86.4579Z" fill="white"/>
<path d="M142.754 86.4579C142.754 87.6739 143.744 88.6636 144.96 88.6636C146.176 88.6636 147.165 87.6739 147.165 86.4579C147.165 85.242 146.176 84.2523 144.96 84.2523C143.744 84.2523 142.754 85.242 142.754 86.4579Z" stroke="white" stroke-width="0.706952" stroke-miterlimit="10"/>
<path d="M22.7314 169.571C22.7314 170.787 23.7212 171.776 24.9371 171.776C26.1531 171.776 27.1428 170.787 27.1428 169.571C27.1428 168.355 26.1531 167.365 24.9371 167.365C23.7212 167.365 22.7314 168.355 22.7314 169.571Z" fill="white"/>
<path d="M22.7314 169.571C22.7314 170.787 23.7212 171.776 24.9371 171.776C26.1531 171.776 27.1428 170.787 27.1428 169.571C27.1428 168.355 26.1531 167.365 24.9371 167.365C23.7212 167.365 22.7314 168.355 22.7314 169.571Z" stroke="white" stroke-width="0.706952" stroke-miterlimit="10"/>
<path d="M10.5141 74.2035C10.5141 75.4194 11.5038 76.4092 12.7197 76.4092C13.9357 76.4092 14.9255 75.4195 14.9255 74.2035C14.9255 72.9875 13.9357 71.9978 12.7197 71.9978C11.5038 71.9978 10.5141 72.9875 10.5141 74.2035Z" fill="white"/>
<path d="M10.5141 74.2035C10.5141 75.4194 11.5038 76.4092 12.7197 76.4092C13.9357 76.4092 14.9255 75.4195 14.9255 74.2035C14.9255 72.9875 13.9357 71.9978 12.7197 71.9978C11.5038 71.9978 10.5141 72.9875 10.5141 74.2035Z" stroke="white" stroke-width="0.706952" stroke-miterlimit="10"/>
<path d="M258.37 146.477C258.37 147.693 259.36 148.683 260.576 148.683C261.792 148.683 262.781 147.693 262.781 146.477C262.781 145.261 261.792 144.271 260.576 144.271C259.36 144.271 258.37 145.261 258.37 146.477Z" fill="white"/>
<path d="M258.37 146.477C258.37 147.693 259.36 148.683 260.576 148.683C261.792 148.683 262.781 147.693 262.781 146.477C262.781 145.261 261.792 144.271 260.576 144.271C259.36 144.271 258.37 145.261 258.37 146.477Z" stroke="white" stroke-width="0.706952" stroke-miterlimit="10"/>
</g>
<defs>
<clipPath id="clip0_341_5302">
<rect width="375" height="322" fill="white" transform="translate(375 322) rotate(-180)"/>
</clipPath>
</defs>
</svg>
