<svg width="236" height="235" viewBox="0 0 236 235" fill="none" xmlns="http://www.w3.org/2000/svg">
<g clip-path="url(#clip0_332_1429)">
<path d="M61.7949 149.004L61.7948 117.087L20.1623 75.4546L20.1623 36.5284L1.11652 17.47L1.11652 -12.6542L19.884 -31.4217L19.8841 -146.695" stroke="#C6D4E1" stroke-width="0.632329" stroke-miterlimit="10"/>
<path d="M68.0166 161.439L68.0166 114.748L26.384 71.9515L26.384 -146.695" stroke="#C6D4E1" stroke-width="0.632329" stroke-miterlimit="10"/>
<path d="M157.694 234.572L157.694 170.769L123.359 136.434L123.359 108.523L96.5101 81.6743L71.9125 81.6743L37.4759 47.2503L37.4759 -40.8711" stroke="#C6D4E1" stroke-width="0.632329" stroke-miterlimit="10"/>
<path d="M128.708 104.629L97.2433 73.164L75.0232 73.164L46.1131 44.2539" stroke="#C6D4E1" stroke-width="0.632329" stroke-miterlimit="10"/>
<path d="M132.261 -146.699L132.261 -72.3373L97.685 -37.7615L97.685 64.17L145.54 112.025L171.503 112.025L203.992 144.514L203.992 223.681" stroke="#C6D4E1" stroke-width="0.632329" stroke-miterlimit="10"/>
<path d="M124.041 -159.922L124.041 -75.1012L48.503 0.424193L48.503 32.2683L80.0435 63.8215" stroke="#C6D4E1" stroke-width="0.632329" stroke-miterlimit="10"/>
<path d="M194.85 221.382L194.85 149.765L167.229 122.145L134.159 122.145" stroke="#C6D4E1" stroke-width="0.632329" stroke-miterlimit="10"/>
<path d="M150.839 150.535L168.178 167.874L168.178 234.572" stroke="#C6D4E1" stroke-width="0.632329" stroke-miterlimit="10"/>
<path d="M160.996 148.211L178.334 165.549L178.334 232.248" stroke="#C6D4E1" stroke-width="0.632329" stroke-miterlimit="10"/>
<path d="M178.333 103.465L214.211 139.344L282.769 139.344L319.772 102.34" stroke="#C6D4E1" stroke-width="0.632329" stroke-miterlimit="10"/>
<path d="M190.398 103.276L220.156 133.033L277.027 133.033L307.721 102.34" stroke="#C6D4E1" stroke-width="0.632329" stroke-miterlimit="10"/>
<path d="M202.298 103.086L226.023 126.811L271.348 126.811L295.819 102.34" stroke="#C6D4E1" stroke-width="0.632329" stroke-miterlimit="10"/>
<path d="M213.693 102.897L231.639 120.842L265.911 120.842L284.413 102.34" stroke="#C6D4E1" stroke-width="0.632329" stroke-miterlimit="10"/>
<path d="M118.059 44.0664L164.497 90.5047L186.895 90.5047" stroke="#C6D4E1" stroke-width="0.632329" stroke-miterlimit="10"/>
<path d="M87.4043 -26.8711L87.4043 44.2533" stroke="#C6D4E1" stroke-width="0.632329" stroke-miterlimit="10"/>
<path d="M78.1338 -19.0938L78.1338 44.0633" stroke="#C6D4E1" stroke-width="0.632329" stroke-miterlimit="10"/>
<path d="M131.819 17.1554L131.819 -59.3438" stroke="#C6D4E1" stroke-width="0.632329" stroke-miterlimit="10"/>
<path d="M202.02 223.684C202.02 224.773 202.903 225.657 203.993 225.657C205.083 225.657 205.966 224.773 205.966 223.684C205.966 222.594 205.083 221.711 203.993 221.711C202.903 221.711 202.02 222.594 202.02 223.684Z" fill="#9ECCFA"/>
<path d="M202.02 223.684C202.02 224.773 202.903 225.657 203.993 225.657C205.083 225.657 205.966 224.773 205.966 223.684C205.966 222.594 205.083 221.711 203.993 221.711C202.903 221.711 202.02 222.594 202.02 223.684Z" stroke="#C6D4E1" stroke-width="0.632329" stroke-miterlimit="10"/>
<path d="M78.1336 46.0395C79.2212 46.0395 80.1064 45.1542 80.1064 44.0666C80.1064 42.979 79.2212 42.0937 78.1336 42.0937C77.046 42.0937 76.1607 42.979 76.1607 44.0666C76.1607 45.1542 77.046 46.0395 78.1336 46.0395Z" fill="#9ECCFA"/>
<path d="M78.1336 46.0395C79.2212 46.0395 80.1064 45.1542 80.1064 44.0666C80.1064 42.979 79.2212 42.0937 78.1336 42.0937C77.046 42.0937 76.1607 42.979 76.1607 44.0666C76.1607 45.1542 77.046 46.0395 78.1336 46.0395Z" stroke="#C6D4E1" stroke-width="0.632329" stroke-miterlimit="10"/>
<path d="M152.47 153.391C153.558 153.391 154.443 152.506 154.443 151.418C154.443 150.331 153.558 149.445 152.47 149.445C151.383 149.445 150.498 150.331 150.498 151.418C150.498 152.506 151.383 153.391 152.47 153.391Z" fill="#9ECCFA"/>
<path d="M152.47 153.391C153.558 153.391 154.443 152.506 154.443 151.418C154.443 150.331 153.558 149.445 152.47 149.445C151.383 149.445 150.498 150.331 150.498 151.418C150.498 152.506 151.383 153.391 152.47 153.391Z" stroke="#C6D4E1" stroke-width="0.632329" stroke-miterlimit="10"/>
<path d="M67.1697 164.321C68.2573 164.321 69.1426 163.436 69.1426 162.348C69.1426 161.26 68.2573 160.375 67.1697 160.375C66.0821 160.375 65.1968 161.26 65.1968 162.348C65.1968 163.436 66.0821 164.321 67.1697 164.321Z" fill="#9ECCFA"/>
<path d="M67.1697 164.321C68.2573 164.321 69.1426 163.436 69.1426 162.348C69.1426 161.26 68.2573 160.375 67.1697 160.375C66.0821 160.375 65.1968 161.26 65.1968 162.348C65.1968 163.436 66.0821 164.321 67.1697 164.321Z" stroke="#C6D4E1" stroke-width="0.632329" stroke-miterlimit="10"/>
</g>
<defs>
<clipPath id="clip0_332_1429">
<rect width="538.745" height="319.2" fill="white" transform="translate(320 -304.172) rotate(90)"/>
</clipPath>
</defs>
</svg>
