<svg width="144" height="48" viewBox="0 0 144 48" fill="none" xmlns="http://www.w3.org/2000/svg">
<g id="Frame">
<g id="Group">
<g id="Group_2">
<g id="Group_3">
<g id="Group_4">
<path id="Vector" d="M9.21802 7.11523H7.14453V41.7661H9.21802V7.11523Z" fill="#0B1957"/>
</g>
<g id="Group_5">
<path id="Vector_2" d="M5.6731 7.11523H3.59961V41.7661H5.6731V7.11523Z" fill="#0B1957"/>
</g>
<g id="Group_6">
<path id="Vector_3" fill-rule="evenodd" clip-rule="evenodd" d="M12.7688 18.5439L10.6953 15.2266V41.7655H12.7688V18.5439Z" fill="#0B1957"/>
</g>
<g id="Group_7">
<path id="Vector_4" fill-rule="evenodd" clip-rule="evenodd" d="M9.2149 7.10987L7.14453 7.11523L27.8705 41.7405L29.9443 41.7313L9.2149 7.10987Z" fill="#0B1957"/>
</g>
</g>
<g id="Group_8">
<g id="Group_9">
<path id="Vector_5" d="M36.1628 41.7373L38.2363 41.7383L38.2526 7.08743L36.1791 7.08646L36.1628 41.7373Z" fill="#0B1957"/>
</g>
<g id="Group_10">
<path id="Vector_6" fill-rule="evenodd" clip-rule="evenodd" d="M32.6156 30.3047L34.6875 33.623L34.6999 7.08408L32.6264 7.08311L32.6156 30.3047Z" fill="#0B1957"/>
</g>
<g id="Group_11">
<path id="Vector_7" fill-rule="evenodd" clip-rule="evenodd" d="M36.166 41.7427L38.2363 41.7383L17.5266 7.10335L15.4528 7.11159L36.166 41.7427Z" fill="#0B1957"/>
</g>
</g>
<g id="Group_12">
<path id="Vector_8" fill-rule="evenodd" clip-rule="evenodd" d="M13.3633 7.11182L11.293 7.11719L32.0189 41.7424L34.0927 41.7332L13.3633 7.11182Z" fill="#0B1957"/>
</g>
</g>
<g id="Group_13">
<path id="Vector_9" d="M45.7094 7.0625H44.0624V20.3228H45.7094V7.0625Z" fill="#0B1957"/>
<path id="Vector_10" d="M49.9528 7.06258H51.9165L58.6523 17.9791H58.5045V7.06258H60.1515V20.3229H58.3144L51.3464 9.04741H51.5998V20.3229H49.9528V7.06258Z" fill="#0B1957"/>
<path id="Vector_11" d="M64.3964 7.0625H66.3601L73.0959 17.979H72.9481V7.0625H74.595V20.3228H72.758L65.79 9.04733H66.0434V20.3228H64.3964V7.0625Z" fill="#0B1957"/>
<path id="Vector_12" d="M83.548 20.5761C82.45 20.5761 81.4681 20.3227 80.6024 19.8159C79.7367 19.3091 79.0539 18.5472 78.5542 17.5302C78.0545 16.5131 77.8046 15.241 77.8046 13.7136C77.8046 12.1652 78.0545 10.8824 78.5542 9.86539C79.0539 8.84834 79.7367 8.08819 80.6024 7.58495C81.4681 7.0817 82.45 6.83008 83.548 6.83008C84.6459 6.83008 85.6278 7.08346 86.4935 7.59022C87.3592 8.09699 88.042 8.86066 88.5417 9.88122C89.0414 10.9018 89.2913 12.1793 89.2913 13.7136C89.2913 15.255 89.0414 16.5343 88.5417 17.5513C88.042 18.5684 87.3592 19.3267 86.4935 19.8265C85.6278 20.3262 84.6459 20.5761 83.548 20.5761ZM83.548 19.0558C84.7937 19.0558 85.7774 18.6018 86.4988 17.6938C87.2202 16.7859 87.5809 15.4521 87.5809 13.6925C87.5809 11.9681 87.2202 10.6396 86.4988 9.70702C85.7774 8.77444 84.7937 8.30814 83.548 8.30814C82.3162 8.30814 81.3361 8.77619 80.6077 9.7123C79.8792 10.6484 79.5149 11.9822 79.5149 13.7136C79.5149 15.4662 79.8792 16.7947 80.6077 17.6991C81.3361 18.6036 82.3162 19.0558 83.548 19.0558Z" fill="#0B1957"/>
<path id="Vector_13" d="M96.0158 18.5703L99.9432 7.06258H101.696L96.966 20.3229H95.2557L90.5681 7.06258H92.3207L96.227 18.5703H96.0158Z" fill="#0B1957"/>
<path id="Vector_14" d="M101.939 20.3228L106.5 7.0625H108.506L112.962 20.3228H111.23L110.111 16.9233H104.832L103.671 20.3228H101.939ZM105.254 15.6353H109.689L107.472 9.06844L105.254 15.6353Z" fill="#0B1957"/>
<path id="Vector_15" d="M112.781 8.4773V7.06258H123.107V8.4773H118.387L118.757 8.09722V20.3229H117.11V8.09722L117.479 8.4773H112.781Z" fill="#0B1957"/>
<path id="Vector_16" d="M127.002 7.0625H125.355V20.3228H127.002V7.0625Z" fill="#0B1957"/>
<path id="Vector_17" d="M134.963 18.5703L138.891 7.0625H140.643L135.913 20.3228H134.203L129.516 7.0625H131.268L135.174 18.5703H134.963Z" fill="#0B1957"/>
<path id="Vector_18" d="M44.0409 28.1777H46.0047L52.7404 39.0943H52.5926V28.1777H54.2396V41.4381H52.4026L45.4345 30.1626H45.6879V41.4381H44.0409V28.1777Z" fill="#0B1957"/>
<path id="Vector_19" d="M58.4843 41.4381V28.1777H66.6559V29.5925H60.1313V34.0478H66.2758V35.4625H60.1313V40.0022H66.6559V41.4381H58.4843Z" fill="#0B1957"/>
<path id="Vector_20" d="M68.3652 29.5925V28.1777H78.6905V29.5925H73.9712L74.3408 29.2124V41.4381H72.6938V29.2124L73.0633 29.5925H68.3652Z" fill="#0B1957"/>
<path id="Vector_21" d="M80.3476 41.4381V39.96L88.4769 29.1279V29.7403L80.3476 29.6769V28.1777H90.0817V29.6558L82.2057 40.15L82.079 39.8755L90.0817 39.9389V41.4381H80.3476Z" fill="#0B1957"/>
</g>
</g>
</g>
</svg>
