<svg width="832" height="367" viewBox="0 0 832 367" fill="none" xmlns="http://www.w3.org/2000/svg">
<g opacity="0.6" clip-path="url(#clip0_332_1864)">
<path opacity="0.2" d="M37.8115 8.72455H8.72562V37.8111M37.8115 8.72455V37.8111M37.8115 8.72455H66.8974M37.8115 37.8111H8.72562M37.8115 37.8111V66.8976M37.8115 37.8111H66.8974M8.72562 37.8111V66.8976M37.8115 66.8976H8.72562M37.8115 66.8976V95.9841M37.8115 66.8976H66.8974M8.72562 66.8976V95.9841M37.8115 95.9841H8.72562M37.8115 95.9841V125.071M37.8115 95.9841H66.8974M8.72562 95.9841V125.071M37.8115 125.071H8.72562M37.8115 125.071V154.157M37.8115 125.071H66.8974M8.72562 125.071V154.157M37.8115 154.157H8.72562M37.8115 154.157V183.244M37.8115 154.157H66.8974M8.72562 154.157V183.244M37.8115 183.244H8.72562M37.8115 183.244V212.33M37.8115 183.244H66.8974M8.72562 183.244V212.33M37.8115 212.33H8.72562M37.8115 212.33V241.417M37.8115 212.33H66.8974M8.72562 212.33V241.417M37.8115 241.417H8.72562M37.8115 241.417V270.503M37.8115 241.417H66.8974M8.72562 241.417V270.503M37.8115 270.503H8.72562M37.8115 270.503V299.59M37.8115 270.503H66.8974M8.72562 270.503V299.59M37.8115 299.59H8.72562M37.8115 299.59V328.676M37.8115 299.59H66.8974M8.72562 299.59V328.676M37.8115 328.676H8.72562M37.8115 328.676V357.763M37.8115 328.676H66.8974M8.72562 328.676V357.763M37.8115 357.763H8.72562M37.8115 357.763V386.849M37.8115 357.763H66.8974M8.72562 357.763V386.849M37.8115 386.849H8.72562M37.8115 386.849V415.936M37.8115 386.849H66.8974M8.72562 386.849V415.936M37.8115 415.936H8.72562M37.8115 415.936V445.022M37.8115 415.936H66.8974M8.72562 415.936V445.022M37.8115 445.022H8.72562M37.8115 445.022V474.109M37.8115 445.022H66.8974M8.72562 445.022V474.109M37.8115 474.109H8.72562M37.8115 474.109V503.195M37.8115 474.109H66.8974M8.72562 474.109V503.195M37.8115 503.195H8.72562M37.8115 503.195V532.282M37.8115 503.195H66.8974M8.72562 503.195V532.282M37.8115 532.282H8.72562M37.8115 532.282V561.368M37.8115 532.282H66.8974M8.72562 532.282V561.368M37.8115 561.368H8.72562M37.8115 561.368V590.455M37.8115 561.368H66.8974M8.72562 561.368V590.455H37.8115M37.8115 590.455H66.8974M66.8974 8.72455V37.8111M66.8974 8.72455H95.9834M66.8974 37.8111V66.8976M66.8974 37.8111H95.9834M66.8974 66.8976V95.9841M66.8974 66.8976H95.9834M66.8974 95.9841V125.071M66.8974 95.9841H95.9834M66.8974 125.071V154.157M66.8974 125.071H95.9834M66.8974 154.157V183.244M66.8974 154.157H95.9834M66.8974 183.244V212.33M66.8974 183.244H95.9834M66.8974 212.33V241.417M66.8974 212.33H95.9834M66.8974 241.417V270.503M66.8974 241.417H95.9834M66.8974 270.503V299.59M66.8974 270.503H95.9834M66.8974 299.59V328.676M66.8974 299.59H95.9834M66.8974 328.676V357.763M66.8974 328.676H95.9834M66.8974 357.763V386.849M66.8974 357.763H95.9834M66.8974 386.849V415.936M66.8974 386.849H95.9834M66.8974 415.936V445.022M66.8974 415.936H95.9834M66.8974 445.022V474.109M66.8974 445.022H95.9834M66.8974 474.109V503.195M66.8974 474.109H95.9834M66.8974 503.195V532.282M66.8974 503.195H95.9834M66.8974 532.282V561.368M66.8974 532.282H95.9834M66.8974 561.368V590.455M66.8974 561.368H95.9834M66.8974 590.455H95.9834M95.9834 8.72455V37.8111M95.9834 8.72455H125.069M95.9834 37.8111V66.8976M95.9834 37.8111H125.069M95.9834 66.8976V95.9841M95.9834 66.8976H125.069M95.9834 95.9841V125.071M95.9834 95.9841H125.069M95.9834 125.071V154.157M95.9834 125.071H125.069M95.9834 154.157V183.244M95.9834 154.157H125.069M95.9834 183.244V212.33M95.9834 183.244H125.069M95.9834 212.33V241.417M95.9834 212.33H125.069M95.9834 241.417V270.503M95.9834 241.417H125.069M95.9834 270.503V299.59M95.9834 270.503H125.069M95.9834 299.59V328.676M95.9834 299.59H125.069M95.9834 328.676V357.763M95.9834 328.676H125.069M95.9834 357.763V386.849M95.9834 357.763H125.069M95.9834 386.849V415.936M95.9834 386.849H125.069M95.9834 415.936V445.022M95.9834 415.936H125.069M95.9834 445.022V474.109M95.9834 445.022H125.069M95.9834 474.109V503.195M95.9834 474.109H125.069M95.9834 503.195V532.282M95.9834 503.195H125.069M95.9834 532.282V561.368M95.9834 532.282H125.069M95.9834 561.368V590.455M95.9834 561.368H125.069M95.9834 590.455H125.069M125.069 8.72455V37.8111M125.069 8.72455H154.155M125.069 37.8111V66.8976M125.069 37.8111H154.155M125.069 66.8976V95.9841M125.069 66.8976H154.155M125.069 95.9841V125.071M125.069 95.9841H154.155M125.069 125.071V154.157M125.069 125.071H154.155M125.069 154.157V183.244M125.069 154.157H154.155M125.069 183.244V212.33M125.069 183.244H154.155M125.069 212.33V241.417M125.069 212.33H154.155M125.069 241.417V270.503M125.069 241.417H154.155M125.069 270.503V299.59M125.069 270.503H154.155M125.069 299.59V328.676M125.069 299.59H154.155M125.069 328.676V357.763M125.069 328.676H154.155M125.069 357.763V386.849M125.069 357.763H154.155M125.069 386.849V415.936M125.069 386.849H154.155M125.069 415.936V445.022M125.069 415.936H154.155M125.069 445.022V474.109M125.069 445.022H154.155M125.069 474.109V503.195M125.069 474.109H154.155M125.069 503.195V532.282M125.069 503.195H154.155M125.069 532.282V561.368M125.069 532.282H154.155M125.069 561.368V590.455M125.069 561.368H154.155M125.069 590.455H154.155M154.155 8.72455V37.8111M154.155 8.72455H183.241M154.155 37.8111V66.8976M154.155 37.8111H183.241M154.155 66.8976V95.9841M154.155 66.8976H183.241M154.155 95.9841V125.071M154.155 95.9841H183.241M154.155 125.071V154.157M154.155 125.071H183.241M154.155 154.157V183.244M154.155 154.157H183.241M154.155 183.244V212.33M154.155 183.244H183.241M154.155 212.33V241.417M154.155 212.33H183.241M154.155 241.417V270.503M154.155 241.417H183.241M154.155 270.503V299.59M154.155 270.503H183.241M154.155 299.59V328.676M154.155 299.59H183.241M154.155 328.676V357.763M154.155 328.676H183.241M154.155 357.763V386.849M154.155 357.763H183.241M154.155 386.849V415.936M154.155 386.849H183.241M154.155 415.936V445.022M154.155 415.936H183.241M154.155 445.022V474.109M154.155 445.022H183.241M154.155 474.109V503.195M154.155 474.109H183.241M154.155 503.195V532.282M154.155 503.195H183.241M154.155 532.282V561.368M154.155 532.282H183.241M154.155 561.368V590.455M154.155 561.368H183.241M154.155 590.455H183.241M183.241 8.72455V37.8111M183.241 8.72455H212.327M183.241 37.8111V66.8976M183.241 37.8111H212.327M183.241 66.8976V95.9841M183.241 66.8976H212.327M183.241 95.9841V125.071M183.241 95.9841H212.327M183.241 125.071V154.157M183.241 125.071H212.327M183.241 154.157V183.244M183.241 154.157H212.327M183.241 183.244V212.33M183.241 183.244H212.327M183.241 212.33V241.417M183.241 212.33H212.327M183.241 241.417V270.503M183.241 241.417H212.327M183.241 270.503V299.59M183.241 270.503H212.327M183.241 299.59V328.676M183.241 299.59H212.327M183.241 328.676V357.763M183.241 328.676H212.327M183.241 357.763V386.849M183.241 357.763H212.327M183.241 386.849V415.936M183.241 386.849H212.327M183.241 415.936V445.022M183.241 415.936H212.327M183.241 445.022V474.109M183.241 445.022H212.327M183.241 474.109V503.195M183.241 474.109H212.327M183.241 503.195V532.282M183.241 503.195H212.327M183.241 532.282V561.368M183.241 532.282H212.327M183.241 561.368V590.455M183.241 561.368H212.327M183.241 590.455H212.327M212.327 8.72455V37.8111M212.327 8.72455H241.413M212.327 37.8111V66.8976M212.327 37.8111H241.413M212.327 66.8976V95.9841M212.327 66.8976H241.413M212.327 95.9841V125.071M212.327 95.9841H241.413M212.327 125.071V154.157M212.327 125.071H241.413M212.327 154.157V183.244M212.327 154.157H241.413M212.327 183.244V212.33M212.327 183.244H241.413M212.327 212.33V241.417M212.327 212.33H241.413M212.327 241.417V270.503M212.327 241.417H241.413M212.327 270.503V299.59M212.327 270.503H241.413M212.327 299.59V328.676M212.327 299.59H241.413M212.327 328.676V357.763M212.327 328.676H241.413M212.327 357.763V386.849M212.327 357.763H241.413M212.327 386.849V415.936M212.327 386.849H241.413M212.327 415.936V445.022M212.327 415.936H241.413M212.327 445.022V474.109M212.327 445.022H241.413M212.327 474.109V503.195M212.327 474.109H241.413M212.327 503.195V532.282M212.327 503.195H241.413M212.327 532.282V561.368M212.327 532.282H241.413M212.327 561.368V590.455M212.327 561.368H241.413M212.327 590.455H241.413M241.413 8.72455V37.8111M241.413 8.72455H270.499M241.413 37.8111V66.8976M241.413 37.8111H270.499M241.413 66.8976V95.9841M241.413 66.8976H270.499M241.413 95.9841V125.071M241.413 95.9841H270.499M241.413 125.071V154.157M241.413 125.071H270.499M241.413 154.157V183.244M241.413 154.157H270.499M241.413 183.244V212.33M241.413 183.244H270.499M241.413 212.33V241.417M241.413 212.33H270.499M241.413 241.417V270.503M241.413 241.417H270.499M241.413 270.503V299.59M241.413 270.503H270.499M241.413 299.59V328.676M241.413 299.59H270.499M241.413 328.676V357.763M241.413 328.676H270.499M241.413 357.763V386.849M241.413 357.763H270.499M241.413 386.849V415.936M241.413 386.849H270.499M241.413 415.936V445.022M241.413 415.936H270.499M241.413 445.022V474.109M241.413 445.022H270.499M241.413 474.109V503.195M241.413 474.109H270.499M241.413 503.195V532.282M241.413 503.195H270.499M241.413 532.282V561.368M241.413 532.282H270.499M241.413 561.368V590.455M241.413 561.368H270.499M241.413 590.455H270.499M270.499 8.72455V37.8111M270.499 8.72455H299.585M270.499 37.8111V66.8976M270.499 37.8111H299.585M270.499 66.8976V95.9841M270.499 66.8976H299.585M270.499 95.9841V125.071M270.499 95.9841H299.585M270.499 125.071V154.157M270.499 125.071H299.585M270.499 154.157V183.244M270.499 154.157H299.585M270.499 183.244V212.33M270.499 183.244H299.585M270.499 212.33V241.417M270.499 212.33H299.585M270.499 241.417V270.503M270.499 241.417H299.585M270.499 270.503V299.59M270.499 270.503H299.585M270.499 299.59V328.676M270.499 299.59H299.585M270.499 328.676V357.763M270.499 328.676H299.585M270.499 357.763V386.849M270.499 357.763H299.585M270.499 386.849V415.936M270.499 386.849H299.585M270.499 415.936V445.022M270.499 415.936H299.585M270.499 445.022V474.109M270.499 445.022H299.585M270.499 474.109V503.195M270.499 474.109H299.585M270.499 503.195V532.282M270.499 503.195H299.585M270.499 532.282V561.368M270.499 532.282H299.585M270.499 561.368V590.455M270.499 561.368H299.585M270.499 590.455H299.585M299.585 8.72455V37.8111M299.585 8.72455H328.671M299.585 37.8111V66.8976M299.585 37.8111H328.671M299.585 66.8976V95.9841M299.585 66.8976H328.671M299.585 95.9841V125.071M299.585 95.9841H328.671M299.585 125.071V154.157M299.585 125.071H328.671M299.585 154.157V183.244M299.585 154.157H328.671M299.585 183.244V212.33M299.585 183.244H328.671M299.585 212.33V241.417M299.585 212.33H328.671M299.585 241.417V270.503M299.585 241.417H328.671M299.585 270.503V299.59M299.585 270.503H328.671M299.585 299.59V328.676M299.585 299.59H328.671M299.585 328.676V357.763M299.585 328.676H328.671M299.585 357.763V386.849M299.585 357.763H328.671M299.585 386.849V415.936M299.585 386.849H328.671M299.585 415.936V445.022M299.585 415.936H328.671M299.585 445.022V474.109M299.585 445.022H328.671M299.585 474.109V503.195M299.585 474.109H328.671M299.585 503.195V532.282M299.585 503.195H328.671M299.585 532.282V561.368M299.585 532.282H328.671M299.585 561.368V590.455M299.585 561.368H328.671M299.585 590.455H328.671M328.671 8.72455V37.8111M328.671 8.72455H357.757M328.671 37.8111V66.8976M328.671 37.8111H357.757M328.671 66.8976V95.9841M328.671 66.8976H357.757M328.671 95.9841V125.071M328.671 95.9841H357.757M328.671 125.071V154.157M328.671 125.071H357.757M328.671 154.157V183.244M328.671 154.157H357.757M328.671 183.244V212.33M328.671 183.244H357.757M328.671 212.33V241.417M328.671 212.33H357.757M328.671 241.417V270.503M328.671 241.417H357.757M328.671 270.503V299.59M328.671 270.503H357.757M328.671 299.59V328.676M328.671 299.59H357.757M328.671 328.676V357.763M328.671 328.676H357.757M328.671 357.763V386.849M328.671 357.763H357.757M328.671 386.849V415.936M328.671 386.849H357.757M328.671 415.936V445.022M328.671 415.936H357.757M328.671 445.022V474.109M328.671 445.022H357.757M328.671 474.109V503.195M328.671 474.109H357.757M328.671 503.195V532.282M328.671 503.195H357.757M328.671 532.282V561.368M328.671 532.282H357.757M328.671 561.368V590.455M328.671 561.368H357.757M328.671 590.455H357.757M357.757 8.72455V37.8111M357.757 8.72455H386.842M357.757 37.8111V66.8976M357.757 37.8111H386.842M357.757 66.8976V95.9841M357.757 66.8976H386.842M357.757 95.9841V125.071M357.757 95.9841H386.842M357.757 125.071V154.157M357.757 125.071H386.842M357.757 154.157V183.244M357.757 154.157H386.842M357.757 183.244V212.33M357.757 183.244H386.842M357.757 212.33V241.417M357.757 212.33H386.842M357.757 241.417V270.503M357.757 241.417H386.842M357.757 270.503V299.59M357.757 270.503H386.842M357.757 299.59V328.676M357.757 299.59H386.842M357.757 328.676V357.763M357.757 328.676H386.842M357.757 357.763V386.849M357.757 357.763H386.842M357.757 386.849V415.936M357.757 386.849H386.842M357.757 415.936V445.022M357.757 415.936H386.842M357.757 445.022V474.109M357.757 445.022H386.842M357.757 474.109V503.195M357.757 474.109H386.842M357.757 503.195V532.282M357.757 503.195H386.842M357.757 532.282V561.368M357.757 532.282H386.842M357.757 561.368V590.455M357.757 561.368H386.842M357.757 590.455H386.842M386.842 8.72455V37.8111M386.842 8.72455H415.928M386.842 37.8111V66.8976M386.842 37.8111H415.928M386.842 66.8976V95.9841M386.842 66.8976H415.928M386.842 95.9841V125.071M386.842 95.9841H415.928M386.842 125.071V154.157M386.842 125.071H415.928M386.842 154.157V183.244M386.842 154.157H415.928M386.842 183.244V212.33M386.842 183.244H415.928M386.842 212.33V241.417M386.842 212.33H415.928M386.842 241.417V270.503M386.842 241.417H415.928M386.842 270.503V299.59M386.842 270.503H415.928M386.842 299.59V328.676M386.842 299.59H415.928M386.842 328.676V357.763M386.842 328.676H415.928M386.842 357.763V386.849M386.842 357.763H415.928M386.842 386.849V415.936M386.842 386.849H415.928M386.842 415.936V445.022M386.842 415.936H415.928M386.842 445.022V474.109M386.842 445.022H415.928M386.842 474.109V503.195M386.842 474.109H415.928M386.842 503.195V532.282M386.842 503.195H415.928M386.842 532.282V561.368M386.842 532.282H415.928M386.842 561.368V590.455M386.842 561.368H415.928M386.842 590.455H415.928M415.928 8.72455V37.8111M415.928 8.72455H445.014M415.928 37.8111V66.8976M415.928 37.8111H445.014M415.928 66.8976V95.9841M415.928 66.8976H445.014M415.928 95.9841V125.071M415.928 95.9841H445.014M415.928 125.071V154.157M415.928 125.071H445.014M415.928 154.157V183.244M415.928 154.157H445.014M415.928 183.244V212.33M415.928 183.244H445.014M415.928 212.33V241.417M415.928 212.33H445.014M415.928 241.417V270.503M415.928 241.417H445.014M415.928 270.503V299.59M415.928 270.503H445.014M415.928 299.59V328.676M415.928 299.59H445.014M415.928 328.676V357.763M415.928 328.676H445.014M415.928 357.763V386.849M415.928 357.763H445.014M415.928 386.849V415.936M415.928 386.849H445.014M415.928 415.936V445.022M415.928 415.936H445.014M415.928 445.022V474.109M415.928 445.022H445.014M415.928 474.109V503.195M415.928 474.109H445.014M415.928 503.195V532.282M415.928 503.195H445.014M415.928 532.282V561.368M415.928 532.282H445.014M415.928 561.368V590.455M415.928 561.368H445.014M415.928 590.455H445.014M445.014 8.72455V37.8111M445.014 8.72455H474.1M445.014 37.8111V66.8976M445.014 37.8111H474.1M445.014 66.8976V95.9841M445.014 66.8976H474.1M445.014 95.9841V125.071M445.014 95.9841H474.1M445.014 125.071V154.157M445.014 125.071H474.1M445.014 154.157V183.244M445.014 154.157H474.1M445.014 183.244V212.33M445.014 183.244H474.1M445.014 212.33V241.417M445.014 212.33H474.1M445.014 241.417V270.503M445.014 241.417H474.1M445.014 270.503V299.59M445.014 270.503H474.1M445.014 299.59V328.676M445.014 299.59H474.1M445.014 328.676V357.763M445.014 328.676H474.1M445.014 357.763V386.849M445.014 357.763H474.1M445.014 386.849V415.936M445.014 386.849H474.1M445.014 415.936V445.022M445.014 415.936H474.1M445.014 445.022V474.109M445.014 445.022H474.1M445.014 474.109V503.195M445.014 474.109H474.1M445.014 503.195V532.282M445.014 503.195H474.1M445.014 532.282V561.368M445.014 532.282H474.1M445.014 561.368V590.455M445.014 561.368H474.1M445.014 590.455H474.1M474.1 8.72455V37.8111M474.1 8.72455H503.186M474.1 37.8111V66.8976M474.1 37.8111H503.186M474.1 66.8976V95.9841M474.1 66.8976H503.186M474.1 95.9841V125.071M474.1 95.9841H503.186M474.1 125.071V154.157M474.1 125.071H503.186M474.1 154.157V183.244M474.1 154.157H503.186M474.1 183.244V212.33M474.1 183.244H503.186M474.1 212.33V241.417M474.1 212.33H503.186M474.1 241.417V270.503M474.1 241.417H503.186M474.1 270.503V299.59M474.1 270.503H503.186M474.1 299.59V328.676M474.1 299.59H503.186M474.1 328.676V357.763M474.1 328.676H503.186M474.1 357.763V386.849M474.1 357.763H503.186M474.1 386.849V415.936M474.1 386.849H503.186M474.1 415.936V445.022M474.1 415.936H503.186M474.1 445.022V474.109M474.1 445.022H503.186M474.1 474.109V503.195M474.1 474.109H503.186M474.1 503.195V532.282M474.1 503.195H503.186M474.1 532.282V561.368M474.1 532.282H503.186M474.1 561.368V590.455M474.1 561.368H503.186M474.1 590.455H503.186M503.186 8.72455V37.8111M503.186 8.72455H532.272M503.186 37.8111V66.8976M503.186 37.8111H532.272M503.186 66.8976V95.9841M503.186 66.8976H532.272M503.186 95.9841V125.071M503.186 95.9841H532.272M503.186 125.071V154.157M503.186 125.071H532.272M503.186 154.157V183.244M503.186 154.157H532.272M503.186 183.244V212.33M503.186 183.244H532.272M503.186 212.33V241.417M503.186 212.33H532.272M503.186 241.417V270.503M503.186 241.417H532.272M503.186 270.503V299.59M503.186 270.503H532.272M503.186 299.59V328.676M503.186 299.59H532.272M503.186 328.676V357.763M503.186 328.676H532.272M503.186 357.763V386.849M503.186 357.763H532.272M503.186 386.849V415.936M503.186 386.849H532.272M503.186 415.936V445.022M503.186 415.936H532.272M503.186 445.022V474.109M503.186 445.022H532.272M503.186 474.109V503.195M503.186 474.109H532.272M503.186 503.195V532.282M503.186 503.195H532.272M503.186 532.282V561.368M503.186 532.282H532.272M503.186 561.368V590.455M503.186 561.368H532.272M503.186 590.455H532.272M532.272 8.72455V37.8111M532.272 8.72455H561.358M532.272 37.8111V66.8976M532.272 37.8111H561.358M532.272 66.8976V95.9841M532.272 66.8976H561.358M532.272 95.9841V125.071M532.272 95.9841H561.358M532.272 125.071V154.157M532.272 125.071H561.358M532.272 154.157V183.244M532.272 154.157H561.358M532.272 183.244V212.33M532.272 183.244H561.358M532.272 212.33V241.417M532.272 212.33H561.358M532.272 241.417V270.503M532.272 241.417H561.358M532.272 270.503V299.59M532.272 270.503H561.358M532.272 299.59V328.676M532.272 299.59H561.358M532.272 328.676V357.763M532.272 328.676H561.358M532.272 357.763V386.849M532.272 357.763H561.358M532.272 386.849V415.936M532.272 386.849H561.358M532.272 415.936V445.022M532.272 415.936H561.358M532.272 445.022V474.109M532.272 445.022H561.358M532.272 474.109V503.195M532.272 474.109H561.358M532.272 503.195V532.282M532.272 503.195H561.358M532.272 532.282V561.368M532.272 532.282H561.358M532.272 561.368V590.455M532.272 561.368H561.358M532.272 590.455H561.358M561.358 8.72455V37.8111M561.358 8.72455H590.444M561.358 37.8111V66.8976M561.358 37.8111H590.444M561.358 66.8976V95.9841M561.358 66.8976H590.444M561.358 95.9841V125.071M561.358 95.9841H590.444M561.358 125.071V154.157M561.358 125.071H590.444M561.358 154.157V183.244M561.358 154.157H590.444M561.358 183.244V212.33M561.358 183.244H590.444M561.358 212.33V241.417M561.358 212.33H590.444M561.358 241.417V270.503M561.358 241.417H590.444M561.358 270.503V299.59M561.358 270.503H590.444M561.358 299.59V328.676M561.358 299.59H590.444M561.358 328.676V357.763M561.358 328.676H590.444M561.358 357.763V386.849M561.358 357.763H590.444M561.358 386.849V415.936M561.358 386.849H590.444M561.358 415.936V445.022M561.358 415.936H590.444M561.358 445.022V474.109M561.358 445.022H590.444M561.358 474.109V503.195M561.358 474.109H590.444M561.358 503.195V532.282M561.358 503.195H590.444M561.358 532.282V561.368M561.358 532.282H590.444M561.358 561.368V590.455M561.358 561.368H590.444M561.358 590.455H590.444M590.444 8.72455V37.8111M590.444 8.72455H619.53M590.444 37.8111V66.8976M590.444 37.8111H619.53M590.444 66.8976V95.9841M590.444 66.8976H619.53M590.444 95.9841V125.071M590.444 95.9841H619.53M590.444 125.071V154.157M590.444 125.071H619.53M590.444 154.157V183.244M590.444 154.157H619.53M590.444 183.244V212.33M590.444 183.244H619.53M590.444 212.33V241.417M590.444 212.33H619.53M590.444 241.417V270.503M590.444 241.417H619.53M590.444 270.503V299.59M590.444 270.503H619.53M590.444 299.59V328.676M590.444 299.59H619.53M590.444 328.676V357.763M590.444 328.676H619.53M590.444 357.763V386.849M590.444 357.763H619.53M590.444 386.849V415.936M590.444 386.849H619.53M590.444 415.936V445.022M590.444 415.936H619.53M590.444 445.022V474.109M590.444 445.022H619.53M590.444 474.109V503.195M590.444 474.109H619.53M590.444 503.195V532.282M590.444 503.195H619.53M590.444 532.282V561.368M590.444 532.282H619.53M590.444 561.368V590.455M590.444 561.368H619.53M590.444 590.455H619.53M619.53 8.72455V37.8111M619.53 8.72455H648.616M619.53 37.8111V66.8976M619.53 37.8111H648.616M619.53 66.8976V95.9841M619.53 66.8976H648.616M619.53 95.9841V125.071M619.53 95.9841H648.616M619.53 125.071V154.157M619.53 125.071H648.616M619.53 154.157V183.244M619.53 154.157H648.616M619.53 183.244V212.33M619.53 183.244H648.616M619.53 212.33V241.417M619.53 212.33H648.616M619.53 241.417V270.503M619.53 241.417H648.616M619.53 270.503V299.59M619.53 270.503H648.616M619.53 299.59V328.676M619.53 299.59H648.616M619.53 328.676V357.763M619.53 328.676H648.616M619.53 357.763V386.849M619.53 357.763H648.616M619.53 386.849V415.936M619.53 386.849H648.616M619.53 415.936V445.022M619.53 415.936H648.616M619.53 445.022V474.109M619.53 445.022H648.616M619.53 474.109V503.195M619.53 474.109H648.616M619.53 503.195V532.282M619.53 503.195H648.616M619.53 532.282V561.368M619.53 532.282H648.616M619.53 561.368V590.455M619.53 561.368H648.616M619.53 590.455H648.616M648.616 8.72455V37.8111M648.616 8.72455H677.702M648.616 37.8111V66.8976M648.616 37.8111H677.702M648.616 66.8976V95.9841M648.616 66.8976H677.702M648.616 95.9841V125.071M648.616 95.9841H677.702M648.616 125.071V154.157M648.616 125.071H677.702M648.616 154.157V183.244M648.616 154.157H677.702M648.616 183.244V212.33M648.616 183.244H677.702M648.616 212.33V241.417M648.616 212.33H677.702M648.616 241.417V270.503M648.616 241.417H677.702M648.616 270.503V299.59M648.616 270.503H677.702M648.616 299.59V328.676M648.616 299.59H677.702M648.616 328.676V357.763M648.616 328.676H677.702M648.616 357.763V386.849M648.616 357.763H677.702M648.616 386.849V415.936M648.616 386.849H677.702M648.616 415.936V445.022M648.616 415.936H677.702M648.616 445.022V474.109M648.616 445.022H677.702M648.616 474.109V503.195M648.616 474.109H677.702M648.616 503.195V532.282M648.616 503.195H677.702M648.616 532.282V561.368M648.616 532.282H677.702M648.616 561.368V590.455M648.616 561.368H677.702M648.616 590.455H677.702M677.702 8.72455V37.8111M677.702 8.72455H706.788M677.702 37.8111V66.8976M677.702 37.8111H706.788M677.702 66.8976V95.9841M677.702 66.8976H706.788M677.702 95.9841V125.071M677.702 95.9841H706.788M677.702 125.071V154.157M677.702 125.071H706.788M677.702 154.157V183.244M677.702 154.157H706.788M677.702 183.244V212.33M677.702 183.244H706.788M677.702 212.33V241.417M677.702 212.33H706.788M677.702 241.417V270.503M677.702 241.417H706.788M677.702 270.503V299.59M677.702 270.503H706.788M677.702 299.59V328.676M677.702 299.59H706.788M677.702 328.676V357.763M677.702 328.676H706.788M677.702 357.763V386.849M677.702 357.763H706.788M677.702 386.849V415.936M677.702 386.849H706.788M677.702 415.936V445.022M677.702 415.936H706.788M677.702 445.022V474.109M677.702 445.022H706.788M677.702 474.109V503.195M677.702 474.109H706.788M677.702 503.195V532.282M677.702 503.195H706.788M677.702 532.282V561.368M677.702 532.282H706.788M677.702 561.368V590.455M677.702 561.368H706.788M677.702 590.455H706.788M706.788 8.72455V37.8111M706.788 8.72455H735.873M706.788 37.8111V66.8976M706.788 37.8111H735.873M706.788 66.8976V95.9841M706.788 66.8976H735.873M706.788 95.9841V125.071M706.788 95.9841H735.873M706.788 125.071V154.157M706.788 125.071H735.873M706.788 154.157V183.244M706.788 154.157H735.873M706.788 183.244V212.33M706.788 183.244H735.873M706.788 212.33V241.417M706.788 212.33H735.873M706.788 241.417V270.503M706.788 241.417H735.873M706.788 270.503V299.59M706.788 270.503H735.873M706.788 299.59V328.676M706.788 299.59H735.873M706.788 328.676V357.763M706.788 328.676H735.873M706.788 357.763V386.849M706.788 357.763H735.873M706.788 386.849V415.936M706.788 386.849H735.873M706.788 415.936V445.022M706.788 415.936H735.873M706.788 445.022V474.109M706.788 445.022H735.873M706.788 474.109V503.195M706.788 474.109H735.873M706.788 503.195V532.282M706.788 503.195H735.873M706.788 532.282V561.368M706.788 532.282H735.873M706.788 561.368V590.455M706.788 561.368H735.873M706.788 590.455H735.873M735.873 8.72455V37.8111M735.873 8.72455H764.959M735.873 37.8111V66.8976M735.873 37.8111H764.959M735.873 66.8976V95.9841M735.873 66.8976H764.959M735.873 95.9841V125.071M735.873 95.9841H764.959M735.873 125.071V154.157M735.873 125.071H764.959M735.873 154.157V183.244M735.873 154.157H764.959M735.873 183.244V212.33M735.873 183.244H764.959M735.873 212.33V241.417M735.873 212.33H764.959M735.873 241.417V270.503M735.873 241.417H764.959M735.873 270.503V299.59M735.873 270.503H764.959M735.873 299.59V328.676M735.873 299.59H764.959M735.873 328.676V357.763M735.873 328.676H764.959M735.873 357.763V386.849M735.873 357.763H764.959M735.873 386.849V415.936M735.873 386.849H764.959M735.873 415.936V445.022M735.873 415.936H764.959M735.873 445.022V474.109M735.873 445.022H764.959M735.873 474.109V503.195M735.873 474.109H764.959M735.873 503.195V532.282M735.873 503.195H764.959M735.873 532.282V561.368M735.873 532.282H764.959M735.873 561.368V590.455M735.873 561.368H764.959M735.873 590.455H764.959M764.959 8.72455V37.8111M764.959 8.72455H794.045M764.959 37.8111V66.8976M764.959 37.8111H794.045M764.959 66.8976V95.9841M764.959 66.8976H794.045M764.959 95.9841V125.071M764.959 95.9841H794.045M764.959 125.071V154.157M764.959 125.071H794.045M764.959 154.157V183.244M764.959 154.157H794.045M764.959 183.244V212.33M764.959 183.244H794.045M764.959 212.33V241.417M764.959 212.33H794.045M764.959 241.417V270.503M764.959 241.417H794.045M764.959 270.503V299.59M764.959 270.503H794.045M764.959 299.59V328.676M764.959 299.59H794.045M764.959 328.676V357.763M764.959 328.676H794.045M764.959 357.763V386.849M764.959 357.763H794.045M764.959 386.849V415.936M764.959 386.849H794.045M764.959 415.936V445.022M764.959 415.936H794.045M764.959 445.022V474.109M764.959 445.022H794.045M764.959 474.109V503.195M764.959 474.109H794.045M764.959 503.195V532.282M764.959 503.195H794.045M764.959 532.282V561.368M764.959 532.282H794.045M764.959 561.368V590.455M764.959 561.368H794.045M764.959 590.455H794.045M794.045 8.72455V37.8111M794.045 8.72455H823.131M794.045 37.8111V66.8976M794.045 37.8111H823.131M794.045 66.8976V95.9841M794.045 66.8976H823.131M794.045 95.9841V125.071M794.045 95.9841H823.131M794.045 125.071V154.157M794.045 125.071H823.131M794.045 154.157V183.244M794.045 154.157H823.131M794.045 183.244V212.33M794.045 183.244H823.131M794.045 212.33V241.417M794.045 212.33H823.131M794.045 241.417V270.503M794.045 241.417H823.131M794.045 270.503V299.59M794.045 270.503H823.131M794.045 299.59V328.676M794.045 299.59H823.131M794.045 328.676V357.763M794.045 328.676H823.131M794.045 357.763V386.849M794.045 357.763H823.131M794.045 386.849V415.936M794.045 386.849H823.131M794.045 415.936V445.022M794.045 415.936H823.131M794.045 445.022V474.109M794.045 445.022H823.131M794.045 474.109V503.195M794.045 474.109H823.131M794.045 503.195V532.282M794.045 503.195H823.131M794.045 532.282V561.368M794.045 532.282H823.131M794.045 561.368V590.455M794.045 561.368H823.131M794.045 590.455H823.131M823.131 8.72455V37.8111M823.131 8.72455H852.217M823.131 37.8111V66.8976M823.131 37.8111H852.217M823.131 66.8976V95.9841M823.131 66.8976H852.217M823.131 95.9841V125.071M823.131 95.9841H852.217M823.131 125.071V154.157M823.131 125.071H852.217M823.131 154.157V183.244M823.131 154.157H852.217M823.131 183.244V212.33M823.131 183.244H852.217M823.131 212.33V241.417M823.131 212.33H852.217M823.131 241.417V270.503M823.131 241.417H852.217M823.131 270.503V299.59M823.131 270.503H852.217M823.131 299.59V328.676M823.131 299.59H852.217M823.131 328.676V357.763M823.131 328.676H852.217M823.131 357.763V386.849M823.131 357.763H852.217M823.131 386.849V415.936M823.131 386.849H852.217M823.131 415.936V445.022M823.131 415.936H852.217M823.131 445.022V474.109M823.131 445.022H852.217M823.131 474.109V503.195M823.131 474.109H852.217M823.131 503.195V532.282M823.131 503.195H852.217M823.131 532.282V561.368M823.131 532.282H852.217M823.131 561.368V590.455M823.131 561.368H852.217M823.131 590.455H852.217M852.217 8.72455V37.8111M852.217 8.72455H881.303M852.217 37.8111V66.8976M852.217 37.8111H881.303M852.217 66.8976V95.9841M852.217 66.8976H881.303M852.217 95.9841V125.071M852.217 95.9841H881.303M852.217 125.071V154.157M852.217 125.071H881.303M852.217 154.157V183.244M852.217 154.157H881.303M852.217 183.244V212.33M852.217 183.244H881.303M852.217 212.33V241.417M852.217 212.33H881.303M852.217 241.417V270.503M852.217 241.417H881.303M852.217 270.503V299.59M852.217 270.503H881.303M852.217 299.59V328.676M852.217 299.59H881.303M852.217 328.676V357.763M852.217 328.676H881.303M852.217 357.763V386.849M852.217 357.763H881.303M852.217 386.849V415.936M852.217 386.849H881.303M852.217 415.936V445.022M852.217 415.936H881.303M852.217 445.022V474.109M852.217 445.022H881.303M852.217 474.109V503.195M852.217 474.109H881.303M852.217 503.195V532.282M852.217 503.195H881.303M852.217 532.282V561.368M852.217 532.282H881.303M852.217 561.368V590.455M852.217 561.368H881.303M852.217 590.455H881.303M881.303 8.72455V37.8111M881.303 8.72455H910.389M881.303 37.8111V66.8976M881.303 37.8111H910.389M881.303 66.8976V95.9841M881.303 66.8976H910.389M881.303 95.9841V125.071M881.303 95.9841H910.389M881.303 125.071V154.157M881.303 125.071H910.389M881.303 154.157V183.244M881.303 154.157H910.389M881.303 183.244V212.33M881.303 183.244H910.389M881.303 212.33V241.417M881.303 212.33H910.389M881.303 241.417V270.503M881.303 241.417H910.389M881.303 270.503V299.59M881.303 270.503H910.389M881.303 299.59V328.676M881.303 299.59H910.389M881.303 328.676V357.763M881.303 328.676H910.389M881.303 357.763V386.849M881.303 357.763H910.389M881.303 386.849V415.936M881.303 386.849H910.389M881.303 415.936V445.022M881.303 415.936H910.389M881.303 445.022V474.109M881.303 445.022H910.389M881.303 474.109V503.195M881.303 474.109H910.389M881.303 503.195V532.282M881.303 503.195H910.389M881.303 532.282V561.368M881.303 532.282H910.389M881.303 561.368V590.455M881.303 561.368H910.389M881.303 590.455H910.389M910.389 8.72455V37.8111M910.389 8.72455H939.475M910.389 37.8111V66.8976M910.389 37.8111H939.475M910.389 66.8976V95.9841M910.389 66.8976H939.475M910.389 95.9841V125.071M910.389 95.9841H939.475M910.389 125.071V154.157M910.389 125.071H939.475M910.389 154.157V183.244M910.389 154.157H939.475M910.389 183.244V212.33M910.389 183.244H939.475M910.389 212.33V241.417M910.389 212.33H939.475M910.389 241.417V270.503M910.389 241.417H939.475M910.389 270.503V299.59M910.389 270.503H939.475M910.389 299.59V328.676M910.389 299.59H939.475M910.389 328.676V357.763M910.389 328.676H939.475M910.389 357.763V386.849M910.389 357.763H939.475M910.389 386.849V415.936M910.389 386.849H939.475M910.389 415.936V445.022M910.389 415.936H939.475M910.389 445.022V474.109M910.389 445.022H939.475M910.389 474.109V503.195M910.389 474.109H939.475M910.389 503.195V532.282M910.389 503.195H939.475M910.389 532.282V561.368M910.389 532.282H939.475M910.389 561.368V590.455M910.389 561.368H939.475M910.389 590.455H939.475M939.475 8.72455V37.8111M939.475 8.72455H968.561M939.475 37.8111V66.8976M939.475 37.8111H968.561M939.475 66.8976V95.9841M939.475 66.8976H968.561M939.475 95.9841V125.071M939.475 95.9841H968.561M939.475 125.071V154.157M939.475 125.071H968.561M939.475 154.157V183.244M939.475 154.157H968.561M939.475 183.244V212.33M939.475 183.244H968.561M939.475 212.33V241.417M939.475 212.33H968.561M939.475 241.417V270.503M939.475 241.417H968.561M939.475 270.503V299.59M939.475 270.503H968.561M939.475 299.59V328.676M939.475 299.59H968.561M939.475 328.676V357.763M939.475 328.676H968.561M939.475 357.763V386.849M939.475 357.763H968.561M939.475 386.849V415.936M939.475 386.849H968.561M939.475 415.936V445.022M939.475 415.936H968.561M939.475 445.022V474.109M939.475 445.022H968.561M939.475 474.109V503.195M939.475 474.109H968.561M939.475 503.195V532.282M939.475 503.195H968.561M939.475 532.282V561.368M939.475 532.282H968.561M939.475 561.368V590.455M939.475 561.368H968.561M939.475 590.455H968.561M968.561 8.72455V37.8111M968.561 8.72455H997.647M968.561 37.8111V66.8976M968.561 37.8111H997.647M968.561 66.8976V95.9841M968.561 66.8976H997.647M968.561 95.9841V125.071M968.561 95.9841H997.647M968.561 125.071V154.157M968.561 125.071H997.647M968.561 154.157V183.244M968.561 154.157H997.647M968.561 183.244V212.33M968.561 183.244H997.647M968.561 212.33V241.417M968.561 212.33H997.647M968.561 241.417V270.503M968.561 241.417H997.647M968.561 270.503V299.59M968.561 270.503H997.647M968.561 299.59V328.676M968.561 299.59H997.647M968.561 328.676V357.763M968.561 328.676H997.647M968.561 357.763V386.849M968.561 357.763H997.647M968.561 386.849V415.936M968.561 386.849H997.647M968.561 415.936V445.022M968.561 415.936H997.647M968.561 445.022V474.109M968.561 445.022H997.647M968.561 474.109V503.195M968.561 474.109H997.647M968.561 503.195V532.282M968.561 503.195H997.647M968.561 532.282V561.368M968.561 532.282H997.647M968.561 561.368V590.455M968.561 561.368H997.647M968.561 590.455H997.647M997.647 8.72455V37.8111M997.647 8.72455H1026.73M997.647 37.8111V66.8976M997.647 37.8111H1026.73M997.647 66.8976V95.9841M997.647 66.8976H1026.73M997.647 95.9841V125.071M997.647 95.9841H1026.73M997.647 125.071V154.157M997.647 125.071H1026.73M997.647 154.157V183.244M997.647 154.157H1026.73M997.647 183.244V212.33M997.647 183.244H1026.73M997.647 212.33V241.417M997.647 212.33H1026.73M997.647 241.417V270.503M997.647 241.417H1026.73M997.647 270.503V299.59M997.647 270.503H1026.73M997.647 299.59V328.676M997.647 299.59H1026.73M997.647 328.676V357.763M997.647 328.676H1026.73M997.647 357.763V386.849M997.647 357.763H1026.73M997.647 386.849V415.936M997.647 386.849H1026.73M997.647 415.936V445.022M997.647 415.936H1026.73M997.647 445.022V474.109M997.647 445.022H1026.73M997.647 474.109V503.195M997.647 474.109H1026.73M997.647 503.195V532.282M997.647 503.195H1026.73M997.647 532.282V561.368M997.647 532.282H1026.73M997.647 561.368V590.455M997.647 561.368H1026.73M997.647 590.455H1026.73M1026.73 8.72455V37.8111M1026.73 8.72455H1055.82M1026.73 37.8111V66.8976M1026.73 37.8111H1055.82M1026.73 66.8976V95.9841M1026.73 66.8976H1055.82M1026.73 95.9841V125.071M1026.73 95.9841H1055.82M1026.73 125.071V154.157M1026.73 125.071H1055.82M1026.73 154.157V183.244M1026.73 154.157H1055.82M1026.73 183.244V212.33M1026.73 183.244H1055.82M1026.73 212.33V241.417M1026.73 212.33H1055.82M1026.73 241.417V270.503M1026.73 241.417H1055.82M1026.73 270.503V299.59M1026.73 270.503H1055.82M1026.73 299.59V328.676M1026.73 299.59H1055.82M1026.73 328.676V357.763M1026.73 328.676H1055.82M1026.73 357.763V386.849M1026.73 357.763H1055.82M1026.73 386.849V415.936M1026.73 386.849H1055.82M1026.73 415.936V445.022M1026.73 415.936H1055.82M1026.73 445.022V474.109M1026.73 445.022H1055.82M1026.73 474.109V503.195M1026.73 474.109H1055.82M1026.73 503.195V532.282M1026.73 503.195H1055.82M1026.73 532.282V561.368M1026.73 532.282H1055.82M1026.73 561.368V590.455M1026.73 561.368H1055.82M1026.73 590.455H1055.82M1055.82 8.72455V37.8111M1055.82 8.72455H1084.9M1055.82 37.8111V66.8976M1055.82 37.8111H1084.9M1055.82 66.8976V95.9841M1055.82 66.8976H1084.9M1055.82 95.9841V125.071M1055.82 95.9841H1084.9M1055.82 125.071V154.157M1055.82 125.071H1084.9M1055.82 154.157V183.244M1055.82 154.157H1084.9M1055.82 183.244V212.33M1055.82 183.244H1084.9M1055.82 212.33V241.417M1055.82 212.33H1084.9M1055.82 241.417V270.503M1055.82 241.417H1084.9M1055.82 270.503V299.59M1055.82 270.503H1084.9M1055.82 299.59V328.676M1055.82 299.59H1084.9M1055.82 328.676V357.763M1055.82 328.676H1084.9M1055.82 357.763V386.849M1055.82 357.763H1084.9M1055.82 386.849V415.936M1055.82 386.849H1084.9M1055.82 415.936V445.022M1055.82 415.936H1084.9M1055.82 445.022V474.109M1055.82 445.022H1084.9M1055.82 474.109V503.195M1055.82 474.109H1084.9M1055.82 503.195V532.282M1055.82 503.195H1084.9M1055.82 532.282V561.368M1055.82 532.282H1084.9M1055.82 561.368V590.455M1055.82 561.368H1084.9M1055.82 590.455H1084.9M1084.9 8.72455V37.8111M1084.9 8.72455H1113.99M1084.9 37.8111V66.8976M1084.9 37.8111H1113.99M1084.9 66.8976V95.9841M1084.9 66.8976H1113.99M1084.9 95.9841V125.071M1084.9 95.9841H1113.99M1084.9 125.071V154.157M1084.9 125.071H1113.99M1084.9 154.157V183.244M1084.9 154.157H1113.99M1084.9 183.244V212.33M1084.9 183.244H1113.99M1084.9 212.33V241.417M1084.9 212.33H1113.99M1084.9 241.417V270.503M1084.9 241.417H1113.99M1084.9 270.503V299.59M1084.9 270.503H1113.99M1084.9 299.59V328.676M1084.9 299.59H1113.99M1084.9 328.676V357.763M1084.9 328.676H1113.99M1084.9 357.763V386.849M1084.9 357.763H1113.99M1084.9 386.849V415.936M1084.9 386.849H1113.99M1084.9 415.936V445.022M1084.9 415.936H1113.99M1084.9 445.022V474.109M1084.9 445.022H1113.99M1084.9 474.109V503.195M1084.9 474.109H1113.99M1084.9 503.195V532.282M1084.9 503.195H1113.99M1084.9 532.282V561.368M1084.9 532.282H1113.99M1084.9 561.368V590.455M1084.9 561.368H1113.99M1084.9 590.455H1113.99M1113.99 8.72455V37.8111M1113.99 8.72455H1143.08M1113.99 37.8111V66.8976M1113.99 37.8111H1143.08M1113.99 66.8976V95.9841M1113.99 66.8976H1143.08M1113.99 95.9841V125.071M1113.99 95.9841H1143.08M1113.99 125.071V154.157M1113.99 125.071H1143.08M1113.99 154.157V183.244M1113.99 154.157H1143.08M1113.99 183.244V212.33M1113.99 183.244H1143.08M1113.99 212.33V241.417M1113.99 212.33H1143.08M1113.99 241.417V270.503M1113.99 241.417H1143.08M1113.99 270.503V299.59M1113.99 270.503H1143.08M1113.99 299.59V328.676M1113.99 299.59H1143.08M1113.99 328.676V357.763M1113.99 328.676H1143.08M1113.99 357.763V386.849M1113.99 357.763H1143.08M1113.99 386.849V415.936M1113.99 386.849H1143.08M1113.99 415.936V445.022M1113.99 415.936H1143.08M1113.99 445.022V474.109M1113.99 445.022H1143.08M1113.99 474.109V503.195M1113.99 474.109H1143.08M1113.99 503.195V532.282M1113.99 503.195H1143.08M1113.99 532.282V561.368M1113.99 532.282H1143.08M1113.99 561.368V590.455M1113.99 561.368H1143.08M1113.99 590.455H1143.08M1143.08 8.72455V37.8111M1143.08 8.72455H1172.16M1143.08 37.8111V66.8976M1143.08 37.8111H1172.16M1143.08 66.8976V95.9841M1143.08 66.8976H1172.16M1143.08 95.9841V125.071M1143.08 95.9841H1172.16M1143.08 125.071V154.157M1143.08 125.071H1172.16M1143.08 154.157V183.244M1143.08 154.157H1172.16M1143.08 183.244V212.33M1143.08 183.244H1172.16M1143.08 212.33V241.417M1143.08 212.33H1172.16M1143.08 241.417V270.503M1143.08 241.417H1172.16M1143.08 270.503V299.59M1143.08 270.503H1172.16M1143.08 299.59V328.676M1143.08 299.59H1172.16M1143.08 328.676V357.763M1143.08 328.676H1172.16M1143.08 357.763V386.849M1143.08 357.763H1172.16M1143.08 386.849V415.936M1143.08 386.849H1172.16M1143.08 415.936V445.022M1143.08 415.936H1172.16M1143.08 445.022V474.109M1143.08 445.022H1172.16M1143.08 474.109V503.195M1143.08 474.109H1172.16M1143.08 503.195V532.282M1143.08 503.195H1172.16M1143.08 532.282V561.368M1143.08 532.282H1172.16M1143.08 561.368V590.455M1143.08 561.368H1172.16M1143.08 590.455H1172.16M1172.16 8.72455V37.8111M1172.16 8.72455H1201.25M1172.16 37.8111V66.8976M1172.16 37.8111H1201.25M1172.16 66.8976V95.9841M1172.16 66.8976H1201.25M1172.16 95.9841V125.071M1172.16 95.9841H1201.25M1172.16 125.071V154.157M1172.16 125.071H1201.25M1172.16 154.157V183.244M1172.16 154.157H1201.25M1172.16 183.244V212.33M1172.16 183.244H1201.25M1172.16 212.33V241.417M1172.16 212.33H1201.25M1172.16 241.417V270.503M1172.16 241.417H1201.25M1172.16 270.503V299.59M1172.16 270.503H1201.25M1172.16 299.59V328.676M1172.16 299.59H1201.25M1172.16 328.676V357.763M1172.16 328.676H1201.25M1172.16 357.763V386.849M1172.16 357.763H1201.25M1172.16 386.849V415.936M1172.16 386.849H1201.25M1172.16 415.936V445.022M1172.16 415.936H1201.25M1172.16 445.022V474.109M1172.16 445.022H1201.25M1172.16 474.109V503.195M1172.16 474.109H1201.25M1172.16 503.195V532.282M1172.16 503.195H1201.25M1172.16 532.282V561.368M1172.16 532.282H1201.25M1172.16 561.368V590.455M1172.16 561.368H1201.25M1172.16 590.455H1201.25M1201.25 8.72455V37.8111M1201.25 8.72455H1230.33M1201.25 37.8111V66.8976M1201.25 37.8111H1230.33M1201.25 66.8976V95.9841M1201.25 66.8976H1230.33M1201.25 95.9841V125.071M1201.25 95.9841H1230.33M1201.25 125.071V154.157M1201.25 125.071H1230.33M1201.25 154.157V183.244M1201.25 154.157H1230.33M1201.25 183.244V212.33M1201.25 183.244H1230.33M1201.25 212.33V241.417M1201.25 212.33H1230.33M1201.25 241.417V270.503M1201.25 241.417H1230.33M1201.25 270.503V299.59M1201.25 270.503H1230.33M1201.25 299.59V328.676M1201.25 299.59H1230.33M1201.25 328.676V357.763M1201.25 328.676H1230.33M1201.25 357.763V386.849M1201.25 357.763H1230.33M1201.25 386.849V415.936M1201.25 386.849H1230.33M1201.25 415.936V445.022M1201.25 415.936H1230.33M1201.25 445.022V474.109M1201.25 445.022H1230.33M1201.25 474.109V503.195M1201.25 474.109H1230.33M1201.25 503.195V532.282M1201.25 503.195H1230.33M1201.25 532.282V561.368M1201.25 532.282H1230.33M1201.25 561.368V590.455M1201.25 561.368H1230.33M1201.25 590.455H1230.33M1230.33 8.72455V37.8111M1230.33 8.72455H1259.42M1230.33 37.8111V66.8976M1230.33 37.8111H1259.42M1230.33 66.8976V95.9841M1230.33 66.8976H1259.42M1230.33 95.9841V125.071M1230.33 95.9841H1259.42M1230.33 125.071V154.157M1230.33 125.071H1259.42M1230.33 154.157V183.244M1230.33 154.157H1259.42M1230.33 183.244V212.33M1230.33 183.244H1259.42M1230.33 212.33V241.417M1230.33 212.33H1259.42M1230.33 241.417V270.503M1230.33 241.417H1259.42M1230.33 270.503V299.59M1230.33 270.503H1259.42M1230.33 299.59V328.676M1230.33 299.59H1259.42M1230.33 328.676V357.763M1230.33 328.676H1259.42M1230.33 357.763V386.849M1230.33 357.763H1259.42M1230.33 386.849V415.936M1230.33 386.849H1259.42M1230.33 415.936V445.022M1230.33 415.936H1259.42M1230.33 445.022V474.109M1230.33 445.022H1259.42M1230.33 474.109V503.195M1230.33 474.109H1259.42M1230.33 503.195V532.282M1230.33 503.195H1259.42M1230.33 532.282V561.368M1230.33 532.282H1259.42M1230.33 561.368V590.455M1230.33 561.368H1259.42M1230.33 590.455H1259.42M1259.42 8.72455V37.8111M1259.42 8.72455H1288.51V37.8111M1259.42 37.8111V66.8976M1259.42 37.8111H1288.51M1259.42 66.8976V95.9841M1259.42 66.8976H1288.51M1259.42 95.9841V125.071M1259.42 95.9841H1288.51M1259.42 125.071V154.157M1259.42 125.071H1288.51M1259.42 154.157V183.244M1259.42 154.157H1288.51M1259.42 183.244V212.33M1259.42 183.244H1288.51M1259.42 212.33V241.417M1259.42 212.33H1288.51M1259.42 241.417V270.503M1259.42 241.417H1288.51M1259.42 270.503V299.59M1259.42 270.503H1288.51M1259.42 299.59V328.676M1259.42 299.59H1288.51M1259.42 328.676V357.763M1259.42 328.676H1288.51M1259.42 357.763V386.849M1259.42 357.763H1288.51M1259.42 386.849V415.936M1259.42 386.849H1288.51M1259.42 415.936V445.022M1259.42 415.936H1288.51M1259.42 445.022V474.109M1259.42 445.022H1288.51M1259.42 474.109V503.195M1259.42 474.109H1288.51M1259.42 503.195V532.282M1259.42 503.195H1288.51M1259.42 532.282V561.368M1259.42 532.282H1288.51M1259.42 561.368V590.455M1259.42 561.368H1288.51M1259.42 590.455H1288.51V561.368M1288.51 37.8111V66.8976M1288.51 66.8976V95.9841M1288.51 95.9841V125.071M1288.51 125.071V154.157M1288.51 154.157V183.244M1288.51 183.244V212.33M1288.51 212.33V241.417M1288.51 241.417V270.503M1288.51 270.503V299.59M1288.51 299.59V328.676M1288.51 328.676V357.763M1288.51 357.763V386.849M1288.51 386.849V415.936M1288.51 415.936V445.022M1288.51 445.022V474.109M1288.51 474.109V503.195M1288.51 503.195V532.282M1288.51 532.282V561.368" stroke="#C6D4E1" stroke-width="0.32931"/>
<path d="M125.069 116.344V133.796M116.343 125.07H133.795" stroke="#C6D4E1" stroke-width="0.658619"/>
<path d="M125.068 349.039V366.491M116.342 357.765H133.794" stroke="#C6D4E1" stroke-width="0.658619"/>
<path d="M357.759 116.344V133.796M349.033 125.07H366.485" stroke="#C6D4E1" stroke-width="0.658619"/>
<path d="M357.759 349.039V366.491M349.033 357.765H366.485" stroke="#C6D4E1" stroke-width="0.658619"/>
<path d="M590.443 116.344V133.796M581.717 125.07H599.169" stroke="#C6D4E1" stroke-width="0.658619"/>
<path d="M590.443 349.039V366.491M581.717 357.765H599.169" stroke="#C6D4E1" stroke-width="0.658619"/>
<path d="M823.129 116.344V133.796M814.403 125.07H831.855" stroke="#C6D4E1" stroke-width="0.658619"/>
<path d="M823.129 349.039V366.491M814.403 357.765H831.855" stroke="#C6D4E1" stroke-width="0.658619"/>
<path d="M125.068 0V17.4519M116.342 8.72595H133.794" stroke="#C6D4E1" stroke-width="0.658619"/>
<path d="M125.069 232.691V250.143M116.343 241.417H133.795" stroke="#C6D4E1" stroke-width="0.658619"/>
<path d="M357.759 0V17.4519M349.033 8.72595H366.485" stroke="#C6D4E1" stroke-width="0.658619"/>
<path d="M357.759 232.691V250.143M349.033 241.417H366.485" stroke="#C6D4E1" stroke-width="0.658619"/>
<path d="M590.443 0V17.4519M581.717 8.72595H599.169" stroke="#C6D4E1" stroke-width="0.658619"/>
<path d="M590.443 232.691V250.143M581.717 241.417H599.169" stroke="#C6D4E1" stroke-width="0.658619"/>
<path d="M823.129 0V17.4519M814.403 8.72595H831.855" stroke="#C6D4E1" stroke-width="0.658619"/>
<path d="M823.129 232.691V250.143M814.403 241.417H831.855" stroke="#C6D4E1" stroke-width="0.658619"/>
<path d="M8.72512 116.344V133.796M-0.000854492 125.07H17.4511" stroke="#C6D4E1" stroke-width="0.658619"/>
<path d="M8.72512 349.039V366.491M-0.000854492 357.765H17.4511" stroke="#C6D4E1" stroke-width="0.658619"/>
<path d="M241.413 116.344V133.796M232.687 125.07H250.139" stroke="#C6D4E1" stroke-width="0.658619"/>
<path d="M241.413 349.039V366.491M232.687 357.765H250.139" stroke="#C6D4E1" stroke-width="0.658619"/>
<path d="M474.099 116.344V133.796M465.373 125.07H482.825" stroke="#C6D4E1" stroke-width="0.658619"/>
<path d="M474.099 349.039V366.491M465.373 357.765H482.825" stroke="#C6D4E1" stroke-width="0.658619"/>
<path d="M706.785 116.344V133.796M698.059 125.07H715.511" stroke="#C6D4E1" stroke-width="0.658619"/>
<path d="M706.785 349.039V366.491M698.059 357.765H715.511" stroke="#C6D4E1" stroke-width="0.658619"/>
<path d="M8.72512 0V17.4519M-0.000854492 8.72595H17.4511" stroke="#C6D4E1" stroke-width="0.658619"/>
<path d="M8.72512 232.691V250.143M-0.000854492 241.417H17.4511" stroke="#C6D4E1" stroke-width="0.658619"/>
<path d="M241.413 0V17.4519M232.687 8.72595H250.139" stroke="#C6D4E1" stroke-width="0.658619"/>
<path d="M241.413 232.691V250.143M232.687 241.417H250.139" stroke="#C6D4E1" stroke-width="0.658619"/>
<path d="M474.099 0V17.4519M465.373 8.72595H482.825" stroke="#C6D4E1" stroke-width="0.658619"/>
<path d="M474.099 232.691V250.143M465.373 241.417H482.825" stroke="#C6D4E1" stroke-width="0.658619"/>
<path d="M706.785 0V17.4519M698.059 8.72595H715.511" stroke="#C6D4E1" stroke-width="0.658619"/>
<path d="M706.785 232.691V250.143M698.059 241.417H715.511" stroke="#C6D4E1" stroke-width="0.658619"/>
</g>
<defs>
<clipPath id="clip0_332_1864">
<rect width="832" height="367" fill="white"/>
</clipPath>
</defs>
</svg>
